<?xml version="1.0" standalone="no"?>
<!DOCTYPE svg PUBLIC "-//W3C//DTD SVG 20010904//EN"
 "http://www.w3.org/TR/2001/REC-SVG-20010904/DTD/svg10.dtd">
<svg version="1.0" xmlns="http://www.w3.org/2000/svg"
 width="512.000000pt" height="512.000000pt" viewBox="0 0 512.000000 512.000000"
 preserveAspectRatio="xMidYMid meet">
<metadata>
Created by potrace 1.16, written by Peter Selinger 2001-2019
</metadata>
<g transform="translate(0.000000,512.000000) scale(0.100000,-0.100000)"
fill="#000000" stroke="none">
<path d="M1990 4371 c-72 -23 -137 -78 -173 -145 -17 -34 -22 -64 -25 -173 -2
-73 -8 -133 -13 -133 -5 0 -9 -34 -9 -76 0 -47 4 -73 10 -69 7 4 9 -55 8 -172
-2 -153 -3 -164 -8 -78 -3 63 -8 94 -13 83 -11 -22 -4 -144 14 -231 12 -63 12
-70 -4 -78 -14 -9 -17 -27 -17 -124 0 -63 4 -116 9 -120 5 -3 12 5 14 17 2 13
5 -410 5 -938 1 -646 5 -978 12 -1012 21 -98 103 -189 191 -212 25 -7 263 -10
676 -8 l638 3 45 24 c87 45 139 112 154 195 9 48 9 377 0 1246 -6 592 -6 647
9 662 15 14 17 47 17 253 0 200 -2 236 -15 241 -13 5 -15 42 -15 245 0 206 2
239 15 239 8 0 15 5 15 10 0 6 -6 10 -14 10 -8 0 -15 17 -19 48 -13 107 -90
217 -177 251 -19 8 -43 21 -54 30 -16 14 -88 16 -635 18 -339 1 -627 -2 -641
-6z m1332 -59 c27 -13 64 -42 83 -65 70 -81 66 18 60 -1636 -5 -1451 -6 -1493
-24 -1530 -26 -49 -81 -97 -128 -111 -27 -8 -225 -10 -653 -8 l-615 3 -48 23
c-26 13 -61 40 -77 60 -63 76 -60 -3 -67 1597 -4 1129 -3 1473 6 1518 19 86
80 150 163 167 24 4 315 8 648 7 l605 -2 47 -23z m-1535 -1134 c-2 -13 -4 -3
-4 22 0 25 2 35 4 23 2 -13 2 -33 0 -45z m186 -2209 c47 -34 38 -38 -17 -6
-22 13 -49 41 -64 67 l-25 45 33 -39 c18 -21 51 -51 73 -67z"/>
<path d="M2688 4273 c-136 -3 -147 -5 -153 -23 -4 -11 -3 -29 0 -40 6 -18 15
-20 111 -20 86 0 104 3 104 15 0 12 -18 15 -106 15 -95 0 -105 2 -102 18 3 15
20 17 152 20 l148 3 -4 -48 -3 -48 109 -3 c91 -2 112 0 127 14 11 9 19 25 19
34 0 33 33 50 96 50 74 0 111 -9 92 -22 -9 -6 -5 -7 11 -3 14 5 21 3 17 -3 -3
-5 4 -18 16 -28 11 -11 27 -32 34 -49 7 -17 13 -23 14 -13 0 9 -12 30 -26 47
-28 34 -23 41 10 14 l21 -18 -20 24 c-32 39 -92 61 -167 61 -47 0 -71 -5 -82
-15 -13 -14 -16 -13 -26 5 -12 22 16 21 -392 13z"/>
<path d="M2048 4263 c6 -2 18 -2 25 0 6 3 1 5 -13 5 -14 0 -19 -2 -12 -5z"/>
<path d="M2190 4261 c33 -6 35 -8 41 -55 4 -37 12 -55 33 -72 l27 -24 378 0
c369 0 379 1 402 21 l24 21 -25 -16 c-21 -14 -75 -16 -403 -16 l-378 0 -24 25
c-18 17 -25 35 -25 63 0 46 -14 62 -54 61 -31 -2 -31 -2 4 -8z"/>
<path d="M1999 4211 c-33 -32 -39 -45 -38 -77 l2 -39 6 43 c10 61 47 95 113
103 l53 6 -49 2 c-44 1 -52 -3 -87 -38z"/>
<path d="M3158 4243 c17 -2 47 -2 65 0 17 2 3 4 -33 4 -36 0 -50 -2 -32 -4z"/>
<path d="M2784 4219 c-9 -15 12 -33 30 -26 9 4 16 13 16 22 0 17 -35 21 -46 4z"/>
<path d="M3375 2690 c0 -789 1 -1112 2 -717 2 394 2 1040 0 1435 -1 394 -2 71
-2 -718z"/>
<path d="M1965 2605 c0 -786 1 -1110 2 -718 2 391 2 1035 0 1430 -1 395 -2 75
-2 -712z"/>
<path d="M3365 1163 c-9 -55 -26 -84 -60 -105 -28 -17 -66 -18 -623 -18 -519
0 -598 2 -627 16 -43 20 -66 46 -75 86 -7 30 -8 31 -9 6 -1 -33 42 -86 86
-104 26 -11 147 -14 625 -14 570 0 594 1 625 20 18 10 38 29 46 42 15 23 33
108 23 108 -3 0 -8 -17 -11 -37z"/>
</g>
</svg>